# xmcd CD database file
#
# Track frame offsets:
#	150
#	23506
#	46521
#	74663
#	92225
#	111832
#	129172
#	148936
#	172139
#	200117
#	222648
#	251295
#	279115
#
# Disc length: 4200 seconds
#
# Revision: 0
# Processed by: cddbd v1.5.2PL0 Copyright (c) Steve Scherf et al.
# Submitted via: CDex 1.51
#
DISCID=c110660d
DTITLE=Jack McDuff - Kirk's Work - Brother Jack Meets The Boss
DYEAR=1961
DGENRE=Jazz
TTITLE0=Three For Dizzy
TTITLE1=Makin' Whoopee
TTITLE2=Funk Underneath
TTITLE3=Kirk's Work
TTITLE4=Doin' The Sixty-Eight
TTITLE5=Too Late Now
TTITLE6=Skater's Waltz
TTITLE7=Watch Out
TTITLE8=Strollin'
TTITLE9=Mellow Gravy
TTITLE10=Christopher Columbus
TTITLE11=Buzzin' Around
TTITLE12=Mr. Clean
EXTD=YEAR: 1961
EXTT0=
EXTT1=
EXTT2=
EXTT3=
EXTT4=
EXTT5=
EXTT6=
EXTT7=
EXTT8=
EXTT9=
EXTT10=
EXTT11=
EXTT12=
PLAYORDER=
